<?xml version="1.0" encoding="iso-8859-1"?>
<!-- Generator: Adobe Illustrator 19.0.0, SVG Export Plug-In . SVG Version: 6.00 Build 0)  -->
<svg version="1.1" id="Layer_1" xmlns="http://www.w3.org/2000/svg" xmlns:xlink="http://www.w3.org/1999/xlink" x="0px" y="0px"
	 viewBox="0 0 512 512" style="enable-background:new 0 0 512 512;" xml:space="preserve">
<g>
	<g>
		<path fill= 'white' d="M263.601,0.001h-15.203H0v248.398v15.204V512h248.399h15.203H512V263.602v-15.204V0.001H263.601z M248.393,496.792H15.208
			V263.606h233.186V496.792z M248.393,248.394H15.208V15.208h233.186V248.394z M496.792,248.394h-169.31v0.004v15.204v0.004h169.31
			v233.186H263.607V263.606h43.596v-0.004v-15.204v-0.004h-43.596V15.208h233.186V248.394z"/>
	</g>
</g>
<g>
	<g>
		<path fill= 'white' d="M160.712,102.892V58.906h-57.82v43.986H58.905v57.82h43.986v43.986h57.82v-43.986h43.986v-57.82H160.712z
			 M189.489,145.504h-43.987v43.986h-27.404v-43.986H74.113V118.1H118.1V74.114h27.404V118.1h43.985V145.504z"/>
	</g>
</g>
<g>
	<g>
		<path fill= 'white' d="M421.084,131.802l31.103-31.103l-40.884-40.884L380.2,90.918l-31.103-31.103l-40.885,40.884l31.103,31.103l-31.103,31.103
			l40.885,40.885l31.103-31.103l31.103,31.103l40.884-40.885L421.084,131.802z M380.2,151.18l-31.103,31.103l-19.378-19.378
			l31.103-31.103l-31.103-31.103l19.378-19.377l31.103,31.103l31.103-31.103l19.377,19.377l-31.103,31.103l31.103,31.103
			l-19.377,19.378L380.2,151.18z"/>
	</g>
</g>
<g>
	<g>
		<path fill= 'white' d="M204.697,313.747H58.905v57.82h145.793L204.697,313.747L204.697,313.747z M189.49,356.358L189.49,356.358H74.113v-27.404
			H189.49V356.358z"/>
	</g>
</g>
<g>
	<g>
		<path fill= 'white' d="M307.304,351.288v57.82h145.792v-57.82H307.304z M437.888,393.9H322.512v-27.404h115.376V393.9z"/>
	</g>
</g>
<g>
	<g>
		<path fill= 'white' d="M204.697,388.83H58.905v57.82h145.793L204.697,388.83L204.697,388.83z M189.49,431.443L189.49,431.443H74.113v-27.404
			H189.49V431.443z"/>
	</g>
</g>
<g>
</g>
<g>
</g>
<g>
</g>
<g>
</g>
<g>
</g>
<g>
</g>
<g>
</g>
<g>
</g>
<g>
</g>
<g>
</g>
<g>
</g>
<g>
</g>
<g>
</g>
<g>
</g>
<g>
</g>
</svg>
